<svg width="32" height="32" viewBox="0 0 32 32" fill="none" xmlns="http://www.w3.org/2000/svg">
<circle cx="16" cy="16" r="16" fill="#141414"/>
<path fill-rule="evenodd" clip-rule="evenodd" d="M19.7983 21.59C20.319 22.1107 21.1632 22.1107 21.6839 21.59C22.2046 21.0693 22.2046 20.2251 21.6839 19.7044L17.8652 15.8856L21.5891 12.1618C22.1098 11.6411 22.1098 10.7968 21.5891 10.2761C21.0684 9.75544 20.2242 9.75544 19.7035 10.2761L15.9796 14L12.2558 10.2763C11.7351 9.75557 10.8909 9.75557 10.3702 10.2763C9.84952 10.797 9.84952 11.6412 10.3702 12.1619L14.094 15.8856L10.2754 19.7042C9.7547 20.2249 9.7547 21.0692 10.2754 21.5899C10.7961 22.1106 11.6403 22.1106 12.161 21.5899L15.9796 17.7713L19.7983 21.59Z" fill="#FAFAFA"/>
</svg>
