<svg width="100" height="100" viewBox="0 0 100 100" fill="none" xmlns="http://www.w3.org/2000/svg">
<circle cx="50" cy="50" r="50" fill="#FFB700"/>
<mask id="mask0" style="mask-type:alpha" maskUnits="userSpaceOnUse" x="0" y="0" width="100" height="100">
<circle cx="50" cy="50" r="50" fill="#FFB700"/>
</mask>
<g mask="url(#mask0)">
<path d="M76.09 20.5753L78.4525 20.8284C79.9812 20.9922 81.1871 22.3833 81.1992 23.9971L81.1494 25.3939C81.0945 26.9304 82.3004 28.3215 83.8961 28.5625L85.2858 28.7114C86.8145 28.8752 88.0204 30.2663 88.0325 31.8801L87.9826 33.2768C87.9278 34.8133 89.1336 36.2044 90.7293 36.4455L92.1191 36.5944C93.6478 36.7581 94.8536 38.1493 94.8658 39.763L94.8159 41.1598C94.761 42.6963 95.9669 44.0874 97.5626 44.3285L98.9523 44.4774C100.481 44.6411 101.687 46.0322 101.699 47.646L101.649 49.0428C101.594 50.5793 102.8 51.9704 104.396 52.2114L105.786 52.3603C107.314 52.5241 108.52 53.9152 108.532 55.529L108.482 56.9258C108.428 58.4622 109.633 59.8534 111.229 60.0944L112.619 60.2433C114.148 60.4071 115.353 61.7982 115.366 63.412L115.316 64.8087C115.261 66.3452 116.467 67.7363 118.062 67.9774L119.452 68.1263C120.981 68.2901 122.187 69.6812 122.199 71.2949L122.149 72.6917C122.094 74.2282 123.3 75.6193 124.896 75.8604L126.285 76.0092C127.814 76.173 129.02 77.5641 129.032 79.1779L128.982 80.5747C128.927 82.1112 130.133 83.5023 131.729 83.7433L133.119 83.8922C134.647 84.056 135.853 85.4471 135.865 87.0609L135.709 89.4978" stroke="#F84A5E" stroke-width="0.883532" stroke-miterlimit="10" stroke-linecap="round" stroke-linejoin="round"/>
<path d="M6.76562 47L5.00788 55.5862L8.77268 54.5908L7.01494 63.177L10.7797 62.1815L9.03915 70.8326L12.804 69.8372L11.0462 78.4234L14.811 77.428L13.0533 86.0142L16.8181 85.0187L15.0775 93.6698L18.8423 92.6744L17.0845 101.261L20.8494 100.265L19.0745 108.786" stroke="#1F2228" stroke-width="0.729033" stroke-miterlimit="10" stroke-linecap="round" stroke-linejoin="round"/>
<path d="M20.7817 38.6027C22.0073 38.6027 23.0009 37.5724 23.0009 36.3014C23.0009 35.0304 22.0073 34 20.7817 34C19.5561 34 18.5625 35.0304 18.5625 36.3014C18.5625 37.5724 19.5561 38.6027 20.7817 38.6027Z" fill="#33D69F"/>
<path d="M19.2603 38.6027C20.5086 38.6027 21.5205 37.5724 21.5205 36.3014C21.5205 35.0304 20.5086 34 19.2603 34C18.012 34 17 35.0304 17 36.3014C17 37.5724 18.012 38.6027 19.2603 38.6027Z" stroke="#1F2228" stroke-width="0.287671" stroke-miterlimit="10" stroke-linecap="round" stroke-linejoin="round"/>
<path fill-rule="evenodd" clip-rule="evenodd" d="M34.3715 81.0007L35.276 81.8565L35.3455 84.3673L34.6607 85.0911L33.9362 84.4055L33.8666 81.8946L33.5167 81.9043L34.3715 81.0007ZM30.904 84.6645L30.0011 85.6188L31.0201 86.5828L31.0139 86.3612L33.5248 86.2916L34.1493 85.6317L33.4247 84.9461L30.9138 85.0156L30.904 84.6645ZM34.6899 86.1431L34.0654 86.8031L34.1349 89.314L33.913 89.3202L34.8444 90.2014L35.7242 89.2714L35.4208 89.2798L35.3513 86.7689L34.6899 86.1431ZM38.3821 86.4624L39.2146 85.5825L38.397 84.8091L38.397 84.8092L35.8861 84.8787L35.2013 85.6025L35.8627 86.2283L38.3737 86.1588L38.3821 86.4624Z" fill="#F84A5E"/>
<path d="M81.8984 79.3806L59.5815 95.1716L66.9348 119.845L73.7818 122.857L96.0346 107.111L88.727 82.5028L81.8984 79.3806Z" fill="#F84A5E"/>
<path d="M76.786 116.63L99.1598 100.799L91.9375 76.2746L69.5637 92.1059L76.786 116.63Z" stroke="#1F2228" stroke-width="0.855613" stroke-miterlimit="10" stroke-linecap="round" stroke-linejoin="round"/>
<path d="M70.013 113.604L92.3225 97.8177L85.0547 73.2291L62.7451 89.0149L70.013 113.604Z" stroke="#1F2228" stroke-width="0.855613" stroke-miterlimit="10" stroke-linecap="round" stroke-linejoin="round"/>
<path d="M91.9373 76.2746L85.0547 73.2291L62.7452 89.015L69.5635 92.106L91.9373 76.2746Z" stroke="#1F2228" stroke-width="0.855613" stroke-miterlimit="10" stroke-linecap="round" stroke-linejoin="round"/>
<path d="M99.1594 100.799L92.3223 97.8177L70.0128 113.604L76.7855 116.63L99.1594 100.799Z" stroke="#1F2228" stroke-width="0.855613" stroke-miterlimit="10" stroke-linecap="round" stroke-linejoin="round"/>
<path fill-rule="evenodd" clip-rule="evenodd" d="M63.4949 11L61.5257 12.9692L62.7674 14.2109L63.5103 13.468L64.1245 14.0822L65.3508 12.8559L63.4949 11ZM64.8028 16.2462L65.5456 15.5033L64.7071 14.6648L65.9334 13.4385L68 15.5051L66.0309 17.4743L64.8028 16.2462ZM62.6718 16.7002L63.5103 17.5386L64.2459 16.803L65.474 18.0311L63.5051 20.0001L61.4385 17.9335L62.6718 16.7002ZM62.2106 14.7677L61.475 15.5033L62.0892 16.1175L60.8559 17.3508L59 15.4949L60.9689 13.5261L62.2106 14.7677Z" fill="#F84A5E"/>
<path d="M25.0244 3.97986L28.701 -5.30612L28.7214 -5.35771L32.7248 -15.4691L37.9666 -17.034L47.239 -13.3628L43.2356 -3.25135L53.2765 0.724096L53.2561 0.77568L49.5795 10.0617L49.5283 10.0414L44.2865 11.6062L38.2927 9.23313L35.5149 16.2492L30.2218 17.7938L21.0006 14.1428L25.0244 3.97986Z" fill="#9F6BF4"/>
<path d="M46.6271 -13.8839L42.6283 -3.78385L52.7317 0.216372L52.7113 0.267906L49.0389 9.54343L38.9354 5.54321L34.9162 15.6948L25.5859 12.0007L29.6052 1.84913L33.2776 -7.4264L33.298 -7.47793L37.2969 -17.5779L46.6271 -13.8839Z" stroke="#1F2228" stroke-width="0.592864" stroke-miterlimit="10" stroke-linecap="round" stroke-linejoin="round"/>
<path d="M51.9435 -15.4149L47.9447 -5.31484L58.0481 -1.31462L58.0277 -1.26309L54.3553 8.01244L44.2518 4.01222L40.2326 14.1638L30.9023 10.4697L34.9216 0.318135L38.594 -8.9574L38.6144 -9.00892L42.6133 -19.1089L51.9435 -15.4149Z" stroke="#1F2228" stroke-width="0.592864" stroke-miterlimit="10" stroke-linecap="round" stroke-linejoin="round"/>
<path d="M34.9159 15.6948L40.2327 14.1637L44.252 4.01217L38.9351 5.54322L34.9159 15.6948Z" stroke="#1F2228" stroke-width="0.592864" stroke-miterlimit="10" stroke-linecap="round" stroke-linejoin="round"/>
<path d="M49.0392 9.54344L54.3561 8.0124L58.0489 -1.31467L52.732 0.21637L49.0392 9.54344Z" stroke="#1F2228" stroke-width="0.592864" stroke-miterlimit="10" stroke-linecap="round" stroke-linejoin="round"/>
<path d="M42.6133 -19.1089L37.2965 -17.5779L25.5855 12.0008L30.9024 10.4697L42.6133 -19.1089Z" stroke="#1F2228" stroke-width="0.592864" stroke-miterlimit="10" stroke-linecap="round" stroke-linejoin="round"/>
<path d="M25.0244 3.97986L28.701 -5.30612L28.7214 -5.35771L32.7248 -15.4691L37.9666 -17.034L47.239 -13.3628L43.2356 -3.25135L53.2765 0.724096L53.2561 0.77568L49.5795 10.0617L49.5283 10.0414L44.2865 11.6062L38.2927 9.23313L35.5149 16.2492L30.2218 17.7938L21.0006 14.1428L25.0244 3.97986Z" fill="#9F6BF4"/>
<path d="M46.6271 -13.8839L42.6283 -3.78385L52.7317 0.216372L52.7113 0.267906L49.0389 9.54343L38.9354 5.54321L34.9162 15.6948L25.5859 12.0007L29.6052 1.84913L33.2776 -7.4264L33.298 -7.47793L37.2969 -17.5779L46.6271 -13.8839Z" stroke="#1F2228" stroke-width="0.592864" stroke-miterlimit="10" stroke-linecap="round" stroke-linejoin="round"/>
<path d="M51.9435 -15.4149L47.9447 -5.31484L58.0481 -1.31462L58.0277 -1.26309L54.3553 8.01244L44.2518 4.01222L40.2326 14.1638L30.9023 10.4697L34.9216 0.318135L38.594 -8.9574L38.6144 -9.00892L42.6133 -19.1089L51.9435 -15.4149Z" stroke="#1F2228" stroke-width="0.592864" stroke-miterlimit="10" stroke-linecap="round" stroke-linejoin="round"/>
<path d="M34.9159 15.6948L40.2327 14.1637L44.252 4.01217L38.9351 5.54322L34.9159 15.6948Z" stroke="#1F2228" stroke-width="0.592864" stroke-miterlimit="10" stroke-linecap="round" stroke-linejoin="round"/>
<path d="M49.0392 9.54344L54.3561 8.0124L58.0489 -1.31467L52.732 0.21637L49.0392 9.54344Z" stroke="#1F2228" stroke-width="0.592864" stroke-miterlimit="10" stroke-linecap="round" stroke-linejoin="round"/>
<path d="M42.6133 -19.1089L37.2965 -17.5779L25.5855 12.0008L30.9024 10.4697L42.6133 -19.1089Z" stroke="#1F2228" stroke-width="0.592864" stroke-miterlimit="10" stroke-linecap="round" stroke-linejoin="round"/>
</g>
<path d="M62.7421 64.2488C63.2269 64.2488 63.6917 64.4393 64.0345 64.7783C64.3773 65.1173 64.5699 65.5771 64.5699 66.0566C64.5699 67.5987 57.091 73.5852 50.2327 73.5852C43.3743 73.5852 35.2949 67.7881 35.2949 66.0566C35.2949 65.5776 35.4871 65.1181 35.8294 64.7792C36.1716 64.4402 36.6359 64.2495 37.1202 64.2488H62.7421Z" fill="#F2F4FA"/>
<path d="M50.1373 75.9996C53.0316 75.9996 55.378 73.6789 55.378 70.8161C55.378 67.9534 53.0316 65.6327 50.1373 65.6327C47.2429 65.6327 44.8965 67.9534 44.8965 70.8161C44.8965 73.6789 47.2429 75.9996 50.1373 75.9996Z" fill="#F2F4FA"/>
<path d="M45.2539 72.6521C46.2188 75.408 49.5758 76.7829 52.208 75.5371C49.4117 75.5027 46.9859 74.7501 45.2539 72.6521Z" fill="#B8C3FD"/>
<path d="M61.4545 46.2493C61.0256 46.0026 60.5373 45.8746 60.0411 45.879C59.5449 45.8833 59.0591 46.0197 58.6346 46.2739C52.8791 49.7086 47.4058 49.3397 40.7003 46.1571C37.4676 44.6211 31.957 57.9997 31.957 61.2831C32.34 73.8119 67.9498 72.9917 67.9498 61.2831C67.9498 61.2807 66.8345 49.3618 61.4545 46.2493Z" fill="#F2F4FA"/>
<path d="M53.8019 63.6579C51.2323 62.4716 48.6627 62.4716 46.0931 63.6579C44.9666 63.6579 44.0527 62.797 44.0527 61.7431V54.5072C44.0577 53.4509 44.9741 52.59 46.0931 52.59H53.8019C54.9296 52.59 55.8423 53.4509 55.8423 54.5048V61.7419C55.8472 62.797 54.9346 63.6579 53.8019 63.6579Z" fill="#F1F3FF" stroke="#B8C3FD" stroke-width="0.391926" stroke-miterlimit="10"/>
<path d="M31.9648 61.2696C31.9648 57.9886 37.4717 44.61 40.7082 46.1435C42.3855 46.9527 44.432 47.7213 45.1843 47.8996C45.5361 47.9832 41.4156 48.0939 38.2214 51.2323C34.6542 54.7236 31.9648 61.2696 31.9648 61.2696Z" fill="#B8C3FD"/>
<path opacity="0.8" d="M45.139 54.4123H44.9786C44.8879 54.4123 44.8145 54.485 44.8145 54.5746V57.2444C44.8145 57.3341 44.8879 57.4068 44.9786 57.4068H45.139C45.2296 57.4068 45.3031 57.3341 45.3031 57.2444V54.5746C45.3031 54.485 45.2296 54.4123 45.139 54.4123Z" fill="#DCE1FE"/>
<path opacity="0.8" d="M45.139 57.7646H44.9786C44.8879 57.7646 44.8145 57.8373 44.8145 57.927V58.9194C44.8145 59.009 44.8879 59.0817 44.9786 59.0817H45.139C45.2296 59.0817 45.3031 59.009 45.3031 58.9194V57.927C45.3031 57.8373 45.2296 57.7646 45.139 57.7646Z" fill="#DCE1FE"/>
<path opacity="0.8" d="M54.6429 59.2599H54.4825C54.3918 59.2599 54.3184 59.3326 54.3184 59.4223V62.0921C54.3184 62.1817 54.3918 62.2544 54.4825 62.2544H54.6429C54.7335 62.2544 54.807 62.1817 54.807 62.0921V59.4223C54.807 59.3326 54.7335 59.2599 54.6429 59.2599Z" fill="#DCE1FE"/>
<path opacity="0.8" d="M54.6429 57.5176H54.4825C54.3918 57.5176 54.3184 57.5903 54.3184 57.6799V58.6723C54.3184 58.762 54.3918 58.8346 54.4825 58.8346H54.6429C54.7335 58.8346 54.807 58.762 54.807 58.6723V57.6799C54.807 57.5903 54.7335 57.5176 54.6429 57.5176Z" fill="#DCE1FE"/>
<path d="M53.9827 73.0592C48.3677 74.8817 39.0064 71.7077 36.0684 67.347C43.117 72.8526 54.0511 73.2166 53.9827 73.0592Z" fill="#B8C3FD"/>
<path d="M52.1873 58.0371H49.7969V60.3889H52.1873V58.0371Z" fill="#FCB614"/>
<path d="M49.7973 58.0371H47.4922V60.3889H49.7973V58.0371Z" fill="#EF4E63"/>
<path d="M49.7973 55.5987H47.4922V58.0371H49.7973V55.5987Z" fill="#63CCF5"/>
<path d="M74.5808 44.068L75.0008 44.3725L67.2331 55.5987C66.5839 56.5369 65.5972 57.1727 64.4901 57.3663C63.3829 57.5598 62.2461 57.2952 61.3295 56.6306L60.9096 56.3261L68.6772 45.0999C69.3264 44.1617 70.3131 43.5259 71.4203 43.3324C72.5274 43.1388 73.6643 43.4035 74.5808 44.068V44.068Z" fill="#F2F4FA"/>
<path d="M72.8961 43.4228C71.2235 42.8198 69.7137 43.5612 68.6907 45.0524L61.5566 55.4526L61.6843 55.5415C62.4791 56.0836 69.9994 42.9252 72.8961 43.4228Z" fill="#B8C3FD"/>
<path d="M25.4182 42.5072L24.9996 42.8119L32.7431 54.0468C33.3903 54.9858 34.3739 55.6221 35.4776 55.8157C36.5813 56.0094 37.7146 55.7446 38.6283 55.0795L39.047 54.7748L31.3034 43.5399C30.6563 42.601 29.6726 41.9647 28.5689 41.771C27.4653 41.5773 26.3319 41.8421 25.4182 42.5072V42.5072Z" fill="#F2F4FA"/>
<path d="M26.8371 41.8357C28.5097 41.2327 30.3148 42.0923 31.3378 43.5835L38.4863 53.9348L38.3442 54.0726C37.5494 54.6147 29.7338 41.3381 26.8371 41.8357Z" fill="#B8C3FD"/>
<path d="M44.3976 45.0303H43.7872C43.4387 45.0303 43.1562 45.3049 43.1562 45.6435V47.2645C43.1562 47.6031 43.4387 47.8777 43.7872 47.8777H44.3976C44.7461 47.8777 45.0285 47.6031 45.0285 47.2645V45.6435C45.0285 45.3049 44.7461 45.0303 44.3976 45.0303Z" fill="#F2F4FA"/>
<path d="M56.298 45.1509H55.6876C55.3391 45.1509 55.0566 45.4254 55.0566 45.7641V47.385C55.0566 47.7237 55.3391 47.9982 55.6876 47.9982H56.298C56.6465 47.9982 56.9289 47.7237 56.9289 47.385V45.7641C56.9289 45.4254 56.6465 45.1509 56.298 45.1509Z" fill="#F2F4FA"/>
<path opacity="0.8" d="M43.5938 47.7198C44.1252 48.1317 45.0096 47.6788 45.0286 47.0577C45.0286 46.7809 45.0286 46.2763 45.0286 46.2763C44.8678 47.0537 44.4931 47.5199 43.5938 47.7198Z" fill="#B8C3FD"/>
<path opacity="0.8" d="M55.4941 47.8417C56.0256 48.2536 56.9099 47.8007 56.929 47.1796C56.929 46.9028 56.929 46.3982 56.929 46.3982C56.7682 47.1796 56.3935 47.6444 55.4941 47.8417Z" fill="#B8C3FD"/>
<rect x="34" y="32.7432" width="32" height="6.13884" rx="3.06942" fill="#B8C3FD"/>
<path d="M50.1324 46.4159C48.3748 46.4218 39.3838 46.2504 36.8932 41.1545V41.1545C36.6868 40.7357 36.6191 40.2651 36.6191 39.7982V31.6926C36.6191 31.2249 36.6865 30.7556 36.8932 30.3361V30.3361C39.4553 25.1043 48.9229 25.1161 50.0729 25.1161C51.2526 25.1161 60.6487 25.1279 63.1989 30.3361V30.3361C63.4052 30.7549 63.4729 31.2255 63.4729 31.6924V39.798C63.4729 40.2657 63.4056 40.735 63.1989 41.1545V41.1545C60.7739 46.1144 52.1761 46.41 50.1324 46.4159Z" fill="#F2F4FA"/>
<path d="M50.0718 43.7185C48.602 43.7229 41.0834 43.5964 39.0007 39.8356V39.8356C38.8295 39.529 38.7715 39.1748 38.7715 38.8236V32.8639C38.7715 32.5121 38.8291 32.159 39.0007 31.8518V31.8518C41.1432 27.9907 49.0604 27.9995 50.022 27.9995C51.0085 27.9995 58.8659 28.0082 60.9984 31.8518V31.8518C61.1696 32.1584 61.2276 32.5126 61.2276 32.8638V38.8235C61.2276 39.1754 61.17 39.5284 60.9984 39.8356V39.8356C58.9705 43.496 51.7808 43.7142 50.0718 43.7185Z" fill="#FFFFFD"/>
<path d="M56.8579 24.8951C56.6088 24.4052 56.0548 24.1451 55.482 24H44.6119C44.0391 24.1451 43.485 24.4052 43.236 24.8951C42.2835 26.7639 45.7201 32.0921 50.0469 32.0921C54.3738 32.0921 57.8104 26.7639 56.8579 24.8951Z" fill="#B8C3FD"/>
<rect x="46.123" y="34.1357" width="2.08359" height="4.31509" rx="1.0418" fill="#231F20"/>
<rect x="45.9395" y="35.8643" width="2.44551" height="4.30789" rx="1.22276" fill="#FFFFFD"/>
<rect x="51.6777" y="34.1357" width="2.08358" height="4.31509" rx="1.04179" fill="#231F20"/>
<rect x="51.4785" y="35.8643" width="2.4455" height="4.30789" rx="1.22275" fill="#FFFFFD"/>
</svg>
