<svg width="40" height="40" viewBox="0 0 40 40" fill="none" xmlns="http://www.w3.org/2000/svg">
<rect width="40" height="40" rx="16" fill="#F84A5E"/>
<path fill-rule="evenodd" clip-rule="evenodd" d="M20.0013 15.0702C17.2787 15.0702 15.0712 17.2777 15.0712 20.0004C15.0712 22.7231 17.2787 24.9296 20.0013 24.9296C22.7239 24.9296 24.9305 22.7231 24.9305 20.0004C24.9305 17.2777 22.7239 15.0702 20.0013 15.0702ZM23.2013 20.0004C23.2013 18.2329 21.7685 16.8003 20.0013 16.8003C18.2339 16.8003 16.8013 18.2329 16.8013 20.0004C16.8013 21.7677 18.2339 23.2005 20.0013 23.2005C21.7685 23.2005 23.2013 21.7677 23.2013 20.0004Z" fill="#FAFAFA"/>
<path fill-rule="evenodd" clip-rule="evenodd" d="M16.0429 10.458C15.0208 10.5048 14.3232 10.6666 13.7128 10.904C13.0814 11.1493 12.5458 11.4773 12.0122 12.0111C11.4782 12.5447 11.1502 13.0803 10.9042 13.7116C10.6662 14.3222 10.5042 15.02 10.4582 16.0417C10.4124 17.0657 10.4004 17.3931 10.4004 20.0004C10.4004 22.6077 10.412 22.9339 10.4584 23.958C10.5054 24.98 10.6672 25.6776 10.9044 26.2881C11.1498 26.9195 11.4778 27.4551 12.0116 27.9887C12.545 28.5228 13.0806 28.8516 13.7116 29.0968C14.3224 29.3342 15.0202 29.496 16.0421 29.5428C17.0661 29.5894 17.3931 29.6008 20.0001 29.6008C22.6075 29.6008 22.9337 29.5894 23.9577 29.5428C24.9797 29.496 25.6782 29.3342 26.289 29.0968C26.9202 28.8516 27.455 28.5228 27.9884 27.9887C28.5224 27.4551 28.8504 26.9195 29.0964 26.2883C29.3324 25.6776 29.4944 24.9798 29.5424 23.9582C29.5884 22.9341 29.6004 22.6077 29.6004 20.0004C29.6004 17.3931 29.5884 17.0659 29.5424 16.0419C29.4944 15.0198 29.3324 14.3222 29.0964 13.7118C28.8504 13.0803 28.5224 12.5447 27.9884 12.0111C27.4544 11.4771 26.9204 11.1491 26.2884 10.904C25.6764 10.6666 24.9783 10.5048 23.9563 10.458C22.9325 10.4114 22.6064 10.4 19.9998 10.4C17.3939 10.4 17.0667 10.4114 16.0429 10.458ZM20.0013 12.1301C19.6809 12.1301 19.3957 12.1297 19.1401 12.1301V12.1277C17.3509 12.1297 17.0077 12.1417 16.1221 12.1817C15.186 12.2247 14.6778 12.3807 14.3394 12.5127C13.8914 12.6871 13.5714 12.8951 13.2354 13.2311C12.8994 13.5672 12.691 13.8872 12.517 14.3352C12.3856 14.6736 12.2292 15.1816 12.1864 16.1177C12.1404 17.1297 12.1312 17.4321 12.1312 19.9958C12.1312 22.5595 12.1404 22.8635 12.1864 23.8756C12.229 24.8116 12.3856 25.3196 12.517 25.6576C12.6914 26.1059 12.8994 26.4251 13.2354 26.7611C13.5714 27.0971 13.8914 27.3051 14.3394 27.4791C14.678 27.6105 15.186 27.7669 16.1221 27.8101C17.1341 27.8561 17.4379 27.8661 20.0013 27.8661C22.5645 27.8661 22.8685 27.8561 23.8805 27.8101C24.8165 27.7673 25.3249 27.6113 25.663 27.4793C26.1112 27.3053 26.4302 27.0973 26.7662 26.7613C27.1022 26.4255 27.3106 26.1065 27.4846 25.6584C27.616 25.3204 27.7724 24.8124 27.8152 23.8764C27.8612 22.8643 27.8712 22.5603 27.8712 19.9982C27.8712 17.4361 27.8612 17.1321 27.8152 16.1201C27.7726 15.184 27.616 14.676 27.4846 14.338C27.3102 13.89 27.1022 13.57 26.7662 13.2339C26.4304 12.8979 26.111 12.6899 25.663 12.5159C25.3245 12.3845 24.8165 12.2281 23.8805 12.1853C22.8683 12.1393 22.5645 12.1301 20.0013 12.1301Z" fill="#FAFAFA"/>
<path d="M25.1257 13.7242C24.4897 13.7242 23.9737 14.2396 23.9737 14.8758C23.9737 15.5118 24.4897 16.0279 25.1257 16.0279C25.7618 16.0279 26.2778 15.5118 26.2778 14.8758C26.2778 14.2398 25.7618 13.7242 25.1257 13.7242Z" fill="#FAFAFA"/>
</svg>
