<svg width="40" height="40" viewBox="0 0 40 40" fill="none" xmlns="http://www.w3.org/2000/svg">
<rect width="40" height="40" rx="16" fill="#7A2FF2"/>
<path d="M29.8236 29.6H25.8017V23.3636C25.8017 21.8765 25.7749 19.9621 23.7099 19.9621C21.6152 19.9621 21.2947 21.5824 21.2947 23.2553V29.5996H17.2728V16.775H21.1338V18.5276H21.1879C21.5743 17.8735 22.1326 17.3353 22.8035 16.9705C23.4743 16.6057 24.2325 16.4279 24.9974 16.456C29.0737 16.456 29.8253 19.1109 29.8253 22.5647L29.8236 29.6ZM12.7348 15.022C12.2732 15.022 11.8219 14.8866 11.438 14.6327C11.0541 14.3789 10.755 14.018 10.5782 13.5957C10.4015 13.1735 10.3552 12.7089 10.4452 12.2606C10.5351 11.8123 10.7573 11.4004 11.0837 11.0772C11.4101 10.7539 11.8259 10.5338 12.2786 10.4445C12.7313 10.3553 13.2006 10.4009 13.6271 10.5758C14.0536 10.7506 14.4182 11.0468 14.6747 11.4267C14.9312 11.8067 15.0682 12.2535 15.0683 12.7106C15.0684 13.0141 15.008 13.3146 14.8908 13.595C14.7736 13.8754 14.6017 14.1302 14.385 14.3448C14.1683 14.5594 13.911 14.7297 13.6279 14.8459C13.3447 14.9621 13.0413 15.0219 12.7348 15.022ZM14.7457 29.6H10.7196V16.775H14.7457V29.6Z" fill="#FAFAFA"/>
</svg>
