<svg width="40" height="40" viewBox="0 0 40 40" fill="none" xmlns="http://www.w3.org/2000/svg">
<rect width="40" height="40" rx="16" fill="#33D69F"/>
<path d="M16.2898 28.2415C23.8373 28.2415 27.9648 21.9936 27.9648 16.5756C27.9648 16.3981 27.9611 16.2215 27.9532 16.0456C28.7544 15.4669 29.4507 14.7446 30 13.9225C29.2648 14.249 28.4736 14.4688 27.6436 14.568C28.4908 14.0604 29.1412 13.2574 29.448 12.3002C28.6552 12.7698 27.7772 13.1111 26.8424 13.2954C26.0936 12.4985 25.0276 12 23.8472 12C21.5812 12 19.7436 13.8362 19.7436 16.0996C19.7436 16.4213 19.7796 16.7343 19.85 17.0345C16.4397 16.863 13.4156 15.2315 11.3918 12.7506C11.0394 13.3565 10.8362 14.0604 10.8362 14.8114C10.8362 16.2339 11.5606 17.4897 12.6622 18.2243C11.989 18.2035 11.3566 18.0189 10.8038 17.7115C10.8032 17.7287 10.8032 17.7455 10.8032 17.7639C10.8032 19.7496 12.2176 21.4074 14.0952 21.7831C13.7504 21.877 13.3876 21.9274 13.0132 21.9274C12.7492 21.9274 12.492 21.9014 12.242 21.8535C12.7644 23.4826 14.2792 24.6681 16.0752 24.7012C14.6707 25.8011 12.9016 26.4563 10.9788 26.4563C10.648 26.4563 10.3212 26.4375 10 26.3995C11.816 27.5626 13.9724 28.2413 16.29 28.2413" fill="#FAFAFA"/>
</svg>
